<svg width="30" height="30" viewBox="0 0 30 30" fill="none" xmlns="http://www.w3.org/2000/svg"><path d="M13.954 10.204a.593.593 0 01.336.533v9.473a.593.593 0 01-.962.462l-2.798-2.238H7.776a.592.592 0 01-.592-.592v-4.737a.592.592 0 01.592-.592h2.754l2.798-2.238a.591.591 0 01.627-.071zm8.452 2.482a.592.592 0 010 .838l-1.95 1.95 1.95 1.949a.593.593 0 01-.838.838l-1.95-1.95-1.949 1.95a.593.593 0 11-.838-.838l1.95-1.95-1.95-1.949a.594.594 0 01.838-.838l1.95 1.95 1.949-1.95a.594.594 0 01.838 0z" fill="white"/></svg>